# xmcd
# Track frame offsets:
# 150
# 13870
# 28149
# 45101
# 57743
# 79366
# 96986
# 114734
# 132600
# 148340
# 172908
# 191439
# 206243
# 222383
# 239224
# 253660
# 271645
# 290723
# 302117
# 318265
#
# Disc length: 4471 seconds
# Revision: 0
# Processed by: cddbd v1.5.2PL0 Copyright (c) Steve Scherf et al.
# Submitted via: VisiTrax 2.11.2.271 - For more info visit www.synapsa.com
#
DISCID=40117514
DTITLE=Various Artist - Sony Music Country Singles
DYEAR=2008
DGENRE=Country
TTITLE0=Harvey. Adam - Genie In The Bottle
TTITLE1=Wilson. Gretchen - Do Me No Good, Don't
TTITLE2=McGraw. Tim - Let It Go
TTITLE3=Chesney. Kenny - Everybody Wants To Go To Heaven
TTITLE4=Underwood. Carrie - Just A Dream
TTITLE5=Gentry. Montgomery - Roll With Me
TTITLE6=Johns. Sarah - One In The Middle.The
TTITLE7=Anderson. Keith - I Still Miss You
TTITLE8=Lambert. Miranda - More Like Her
TTITLE9=Paisley. Brad - Start A Band
TTITLE10=Jackson. Alan - Country Boy
TTITLE11=Pickler. Kellie - Don't You Know You're Beautiful
TTITLE12=Brooks and Dunn, feat. Reba McEntire - Cowgirls Don't Cry
TTITLE13=Simpsom. Jessica - Remember That
TTITLE14=Chesney. Kenny with Mac McNally - Down The Road
TTITLE15=McBride. Martina - Ride
TTITLE16=Underwood. Carrie - Do You Hear What I Hear
TTITLE17=Presley. Elvis with Martina McBride - Blue Christmas
TTITLE18=Atkins. Rodney - Its America
TTITLE19=Pickler. Kellie - Best Days Of Your Life
EXTD=
EXTT0=
EXTT1=
EXTT2=
EXTT3=
EXTT4=
EXTT5=
EXTT6=
EXTT7=
EXTT8=
EXTT9=
EXTT10=
EXTT11=
EXTT12=
EXTT13=
EXTT14=
EXTT15=
EXTT16=
EXTT17=
EXTT18=
EXTT19=
PLAYORDER=
